<svg width="128" height="128" viewBox="0 0 128 128" fill="none" xmlns="http://www.w3.org/2000/svg">
<rect width="128" height="128" rx="28" fill="url(#paint0_linear_3_19)"/>
<path d="M60.2291 61.722C60.2291 61.722 61.3961 63.7469 63.7327 63.5952C66.0693 63.4434 66.7507 61.4958 66.9438 60.7455C67.1369 59.9951 69.2804 33.8318 69.2804 32.5573C69.2804 31.2828 68.21 28.6593 67.7217 27.0096C67.2334 25.3599 64.4775 16.739 64.0223 15.688C63.1451 13.6631 58.5712 12.9128 57.8898 16.5873C57.3215 19.677 55.4594 45.0044 55.4594 45.0044C55.4594 45.0044 55.4594 47.1783 56.3367 50.028C57.2112 52.875 60.2291 61.722 60.2291 61.722Z" fill="white"/>
<path d="M60.5519 69.016C60.5519 69.016 61.6582 66.958 60.3036 65.049C58.9491 63.14 56.9325 63.5869 56.1905 63.8159C55.4511 64.0449 32.0713 75.9844 30.9872 76.6548C29.903 77.3251 28.234 79.6148 27.0892 80.8976C25.9443 82.1804 20.0601 89.0578 19.4063 89.9985C18.1455 91.8082 19.9139 96.0924 23.3981 94.7406C26.325 93.6041 48.8441 81.8659 48.8441 81.8659C48.8441 81.8659 50.6924 80.7211 52.6566 78.4782C54.6153 76.2354 60.5519 69.016 60.5519 69.016Z" fill="white"/>
<path d="M66.9189 69.016C66.9189 69.016 65.8127 66.958 67.1672 65.049C68.5217 63.14 70.5383 63.5869 71.2804 63.8159C72.0197 64.0449 95.3995 75.9844 96.4837 76.6548C97.5678 77.3251 99.2368 79.6148 100.382 80.8976C101.527 82.1804 107.411 89.0578 108.065 89.9985C109.325 91.8082 107.557 96.0924 104.073 94.7406C101.146 93.6041 78.6268 81.8659 78.6268 81.8659C78.6268 81.8659 76.7785 80.7211 74.8143 78.4782C72.8501 76.2354 66.9189 69.016 66.9189 69.016Z" fill="white"/>
<defs>
<linearGradient id="paint0_linear_3_19" x1="64" y1="0" x2="64" y2="128" gradientUnits="userSpaceOnUse">
<stop stop-color="#19B8F0"/>
<stop offset="1" stop-color="#1763E1"/>
</linearGradient>
</defs>
</svg>
